<?xml version="1.0" encoding="UTF-8" standalone="no"?>
<!-- Created with Inkscape (http://www.inkscape.org/) -->

<svg
   xmlns:dc="http://purl.org/dc/elements/1.1/"
   xmlns:cc="http://creativecommons.org/ns#"
   xmlns:rdf="http://www.w3.org/1999/02/22-rdf-syntax-ns#"
   xmlns:svg="http://www.w3.org/2000/svg"
   xmlns="http://www.w3.org/2000/svg"
   xmlns:sodipodi="http://sodipodi.sourceforge.net/DTD/sodipodi-0.dtd"
   xmlns:inkscape="http://www.inkscape.org/namespaces/inkscape"
   width="500mm"
   height="500mm"
   viewBox="0 0 500 500"
   version="1.1"
   id="svg4676"
   inkscape:version="0.92.1 r15371"
   sodipodi:docname="santa_face.svg">
  <defs
     id="defs4670" />
  <sodipodi:namedview
     id="base"
     pagecolor="#6c6c6c"
     bordercolor="#666666"
     borderopacity="1.0"
     inkscape:pageopacity="0"
     inkscape:pageshadow="2"
     inkscape:zoom="0.175"
     inkscape:cx="541.05362"
     inkscape:cy="966.90308"
     inkscape:document-units="mm"
     inkscape:current-layer="layer1"
     showgrid="false"
     inkscape:window-width="1366"
     inkscape:window-height="715"
     inkscape:window-x="-8"
     inkscape:window-y="-8"
     inkscape:window-maximized="1" />
  <metadata
     id="metadata4673">
    <rdf:RDF>
      <cc:Work
         rdf:about="">
        <dc:format>image/svg+xml</dc:format>
        <dc:type
           rdf:resource="http://purl.org/dc/dcmitype/StillImage" />
        <dc:title></dc:title>
      </cc:Work>
    </rdf:RDF>
  </metadata>
  <g
     inkscape:label="Layer 1"
     inkscape:groupmode="layer"
     id="layer1"
     transform="translate(0,203)">
    <g
       id="g4652"
       style="opacity:1"
       transform="matrix(6.5298303,0,0,6.5298303,292.62038,312.89585)">
      <path
         style="opacity:1;fill:#ffffff;fill-opacity:1;stroke:none;stroke-width:5.40291643px;stroke-linecap:butt;stroke-linejoin:miter;stroke-opacity:1"
         d="m 368.33203,371.57617 a 129.28407,129.28407 0 0 0 -129.2793,129.2793 129.28407,129.28407 0 0 0 129.2793,129.2793 129.28407,129.28407 0 0 0 129.28906,-129.2793 129.28407,129.28407 0 0 0 -1.48632,-18.67774 c -6.65727,3.16999 -13.08828,6.29224 -19.1211,9.23438 -13.15167,6.41407 -24.64943,12.10297 -36.17578,16.51367 -11.52637,4.4108 -23.25074,12.37823 -47.10547,3.07031 -10.13737,-3.95546 -18.36219,-13.40268 -21.58008,-20.57617 -3.21768,-7.17354 -3.46725,-12.23559 -3.54687,-15.99804 -0.15795,-7.52496 0.96691,-11.09739 1.91015,-14.63672 1.88677,-7.07868 4.23333,-12.75182 7.25977,-19.61719 6.05311,-13.73064 14.85236,-30.84246 25.9707,-51.0957 1.81124,-3.29975 4.03326,-7.11194 5.96289,-10.5625 a 129.28407,129.28407 0 0 0 -41.37695,-6.9336 z M 1398.668,396.11328 c -108.0934,-0.4436 -216.1848,13.89582 -320.5352,42.77539 -181.18711,50.14453 -348.98085,143.9054 -486.90038,271.11719 -46.1242,46.1242 25.50964,226.0706 76.85547,212.3125 35.97773,-9.6402 287.28958,-237.55249 464.52541,-286.60352 131.1827,-36.30559 337.9077,-34.77748 405.2187,-24.72851 67.3112,10.04899 60.6003,-197.42508 30.1524,-201.97071 -30.448,-4.54559 -81.8507,-10.02686 -123,-11.80664 -15.4311,-0.66741 -30.8745,-1.03233 -46.3164,-1.0957 z m -359.377,314.1211 c -6.6068,-0.0603 -19.018,0.47631 -34.8301,2.91992 -49.78426,28.50196 -100.43627,62.62847 -146.33004,95.61523 -12.83447,9.22492 -25.25676,18.32386 -37.27344,27.21094 -3.06633,8.19712 -3.25427,14.12335 -0.58984,16.42969 6.66136,5.76611 29.75266,-9.07285 60.1914,-22.625 33.4716,-14.90268 66.51757,-24.47828 101.07227,-27.36328 27.93745,-2.38653 49.93345,0.19728 56.70895,0.42187 20.4638,0.68634 44.2448,-15.73817 49.461,-40.49023 5.2174,-24.75841 -13.282,-50.96302 -46.3477,-52.07618 -0.6076,-0.0204 -1.2957,-0.036 -2.0625,-0.043 z m 292.3067,0 c -0.7668,0.007 -1.4549,0.0225 -2.0625,0.043 -33.0657,1.1133 -51.5653,27.31753 -46.3477,52.07618 5.216,24.75184 28.9954,41.17628 49.459,40.49023 6.7757,-0.22459 28.7735,-2.8083 56.7109,-0.42187 34.5549,2.88495 67.6005,12.46058 101.0723,27.36328 30.4386,13.55215 53.5303,28.39103 60.1914,22.625 6.4813,-5.61009 -3.8691,-32.59939 -31.6152,-61.74414 -29.2389,-30.7129 -69.0623,-54.89055 -112.7657,-68.38086 -34.1519,-10.50966 -63.1412,-12.15571 -74.6425,-12.05078 z m 246.0429,326.51952 c -0.5331,-0.011 -1.0744,-0.01 -1.6211,0.016 -0.7281,0.03 -1.4677,0.092 -2.209,0.1875 -2.2247,0.2864 -4.3953,1.2258 -6.5293,2.168 -0.9044,0.04 -1.955,0 -4.2851,0.625 -2.8718,0.7683 -7.7001,3.0926 -10.6484,7.6133 -3.537,5.4234 -3.7463,15.6891 -1.4161,20.4707 2.1881,4.4901 3.6245,5.6248 4.1446,6.2734 0,-0.1258 0.1832,0.3976 -1.1856,3.2012 -2.0923,4.289 -13.6528,16.7823 -28.1465,26.4512 -14.4936,9.6688 -32.1085,17.6625 -45.3144,19.9218 -30.0525,5.1414 -62.1565,-7.8839 -97.2324,-23.3144 -35.0759,-15.4305 -72.938,-33.2444 -114.8457,-27.8145 -45.4308,5.8866 -65.6903,16.5629 -102.17,46.7539 -36.4796,30.1911 -44.7764,29.327 -75.8203,1.5938 -31.0439,-27.7334 -55.6501,-41.146 -111.22263,-48.3477 -41.90782,-5.4307 -79.77171,12.3838 -114.84765,27.8145 -35.07597,15.4307 -67.17999,28.4558 -97.23243,23.3144 -13.20549,-2.2591 -30.81909,-10.2644 -45.3125,-19.9336 -14.49337,-9.6692 -26.06529,-22.1595 -28.16015,-26.4511 -1.36775,-2.8022 -1.17827,-3.3117 -1.17383,-3.1875 0.51975,-0.6491 1.95843,-1.7963 4.14453,-6.2891 2.32779,-4.7839 2.11232,-15.0491 -1.42773,-20.4687 -3.50022,-5.3587 -8.43043,-7.635 -12.17969,-8.6973 -3.74924,-1.0625 -6.88166,-1.1689 -9.94727,-0.8809 -13.40901,1.2594 -24.99107,8.0287 -32.94336,18.4551 -8.85958,11.616 -11.57991,25.7084 -9.99804,38.9746 1.19153,9.9922 6.27984,16.8776 10.91601,21.961 27.03886,29.6476 62.89894,48.3232 97.09375,63.1816 7.33369,3.1868 12.0165,3.1397 12.80469,3.3926 71.61727,22.969 139.54275,78.597 224.53906,87.8847 56.27194,6.149 104.89764,-23.1989 148.32424,-23.1992 43.4308,-3e-4 92.0599,29.3495 148.3359,23.1992 84.9937,-9.2888 152.914,-64.9266 224.5274,-87.8847 0.788,-0.2527 5.4744,-0.2025 12.8164,-3.3926 34.1983,-14.8558 70.0448,-33.5458 97.082,-63.1816 5.3613,-5.8766 8.7834,-12.7936 10.5723,-20.0606 0.3035,-1.2268 0.4578,-2.4862 0.4589,-3.75 v -0.014 c 8e-4,-0.6392 -0.041,-1.2773 -0.1171,-1.9121 -0.9796,-7.9716 0.086,-21.987 -9.9844,-35.2011 -4.7427,-6.2238 -10.4554,-15.6986 -25.2793,-18.9512 -1.3842,-0.3038 -2.9105,-0.4869 -4.5098,-0.5215 z m 59.3535,33.5352 c -0.8561,0.01 -1.6958,0.2099 -2.5156,0.6328 1.9295,9.0852 1.8066,16.2506 2.041,18.1582 v 0.027 c 0.1728,1.4087 0.2559,2.8288 0.2559,4.2481 v 0.014 0.012 c 0,2.8108 -0.3453,5.6131 -1.0215,8.3418 -2.4744,10.0416 -7.3595,19.9986 -15.0371,28.414 -30.0305,32.9169 -68.5336,52.6133 -103.6348,67.8613 -5.0773,2.2057 -9.5612,3.4153 -12.9199,4.0567 -1.1155,0.2122 -1.822,0.2991 -2.6152,0.4082 -66.1003,21.5086 -135.6613,91.095 -227.3828,101.1191 -40.2523,4.3991 -79.2792,-19.2483 -104.2227,-13.8379 -24.9435,5.4105 -36.703,28.0517 -64.5059,28.0704 -23.0379,-0.02 -37.6723,-16.0531 -57.8886,-20.2911 -20.2164,-4.2379 -47.0903,9.0239 -74.22659,6.0586 -91.73458,-10.024 -161.30602,-79.6193 -227.42187,-101.1328 -0.78975,-0.1086 -1.48395,-0.1815 -2.58985,-0.3945 -3.3552,-0.6419 -7.83433,-1.8528 -12.90625,-4.0567 -35.09053,-15.2475 -73.6118,-34.9266 -103.64843,-67.8613 -5.74198,-6.2958 -13.98323,-17.2894 -15.81446,-32.6484 -1.01186,-8.4802 8.94767,-21.9303 1.39063,-26.2344 -7.55704,-4.3041 -31.28072,42.1031 -31.28516,69.0723 v 0.027 c 0.003,20.2253 13.68215,32.1559 20.71289,39.627 7.0305,7.4711 8.6548,8.9027 7.9961,14.1308 -0.78482,6.229 -7.41343,17.7702 -16.07032,31.6914 -8.65664,13.9213 -19.23291,31.0469 -19.23242,53.0547 -7.4e-4,31.2914 16.28864,58.9703 34.29492,81.1641 10.67001,13.1514 21.62048,23.4971 32.20313,32.1894 -29.48407,31.7994 -46.70411,74.0683 -46.70313,117.5118 -9.8e-4,45.57 18.50189,90.1992 50.72071,122.4218 32.21979,32.2234 76.85185,50.7303 122.42187,50.7344 6.14499,2e-4 10.74385,-1.3148 14.83203,-2.7051 -1.76706,4.654 -3.29126,10.2971 -3.29101,17.5371 -0.001,48.2153 22.94215,94.1361 59.30469,125.4688 36.15916,31.1575 83.95821,47.6852 131.98632,47.6855 48.0284,-3e-4 95.8269,-16.528 131.9863,-47.6855 12.7752,-11.0081 16.2188,-24.0868 20.0489,-31.9844 0.617,-1.2708 0.7782,-1.2834 1.3261,-2.2461 0.5479,0.9627 0.7092,0.9754 1.3262,2.2461 3.83,7.8976 7.2736,20.9763 20.0488,31.9844 36.1595,31.1575 83.9599,47.6852 131.9883,47.6855 48.0281,-3e-4 95.8269,-16.528 131.9863,-47.6855 36.3626,-31.3327 59.304,-77.2535 59.3028,-125.4688 2e-4,-7.24 -1.5215,-12.8831 -3.2891,-17.5371 4.0882,1.3905 8.6871,2.7053 14.832,2.7051 45.5716,0 90.2086,-18.4955 122.4336,-50.7207 32.2255,-32.2252 50.7217,-76.8641 50.7207,-122.4355 0,-43.4454 -17.2131,-85.721 -46.7031,-117.5235 10.5792,-8.6921 21.5371,-19.0287 32.2031,-32.1777 18.0031,-22.1941 34.282,-49.8754 34.2813,-81.1641 5e-4,-22.0079 -10.5758,-39.1335 -19.2324,-53.0547 -8.6569,-13.921 -15.2836,-25.4624 -16.0684,-31.6914 -0.6589,-5.2287 0.9646,-6.6598 7.9961,-14.1308 7.0307,-7.471 20.7077,-19.4019 20.7109,-39.627 v -0.027 c 0,-25.4441 -16.2828,-70.1256 -29.125,-70.0371 z"
         id="path4578"
         inkscape:connector-curvature="0"
         transform="matrix(0.04051917,0,0,0.04051917,-44.812861,-79.006012)" />
      <path
         style="opacity:1;vector-effect:none;fill:#cc0001;fill-opacity:1;stroke:none;stroke-width:333.70037842;stroke-linecap:round;stroke-linejoin:round;stroke-miterlimit:4;stroke-dasharray:none;stroke-dashoffset:0;stroke-opacity:1;paint-order:fill markers stroke"
         d="m 743.89844,18.910156 c -7.57234,-0.08638 -15.02885,0.301877 -22.31836,1.402344 -6.76487,1.021245 -12.81173,5.524714 -19.26953,7.978516 -0.93536,0.355634 -1.85768,0.759958 -2.78711,1.15039 -24.0901,-0.632293 -39.85022,10.101938 -54.39844,21.779297 -16.1389,12.954113 -32.073,29.67034 -48.94141,49.449217 -33.73668,39.55784 -70.44435,91.24875 -104.61914,143.38867 -27.9259,42.60605 -53.70131,84.98875 -74.4375,121.30274 -17.01914,-6.6995 -35.2462,-10.32298 -53.54297,-10.32031 -38.35923,0.005 -76.49317,15.79189 -103.61718,42.91601 -27.12412,27.1241 -42.9099,65.25799 -42.91602,103.61719 -0.005,38.36676 15.79076,76.48164 42.91602,103.61523 27.12514,27.13363 65.25045,42.95277 103.61718,42.95899 38.37431,0.005 76.52153,-15.78324 103.65625,-42.91797 27.13476,-27.13466 42.9236,-65.28194 42.91797,-103.65625 -0.001,-8.32648 -0.79159,-16.63621 -2.23632,-24.83008 43.46013,-20.02583 85.45212,-33.38752 130.25976,-43.63672 2.22142,-0.50248 3.38544,-0.5975 5.49805,-1.04297 0.0247,1.39934 0.14771,2.0246 0.16992,3.47071 0.30973,22.23403 -0.18167,49.02643 1.79492,70.95507 3.97799,44.11383 16.54788,115.49706 14.33985,121.45118 -1.77867,4.79698 -55.16891,44.47761 -81.23243,68.51757 -0.19003,0.17029 -0.37767,0.34112 -0.56054,0.51758 -17.45214,17.45209 -21.16874,42.62645 -20.01758,68.44336 1.1513,25.81691 7.84387,53.67122 17.70703,79.72461 9.86316,26.05339 22.74719,50.12707 37.96875,68.1582 7.61087,9.01561 15.80583,16.626 25.48437,21.89649 9.67858,5.27049 21.76261,8.06574 33.54688,4.9082 10.6724,-2.85966 17.44854,-8.06445 28.58594,-15.63867 11.13737,-7.57422 24.72031,-17.54687 40.49023,-29.34766 31.53983,-23.6016 71.71925,-54.39933 116.17383,-86.35156 88.90909,-63.90457 195.68484,-132.14643 279.39064,-155.3125 126.2596,-34.94303 335.4668,-33.51616 397.5996,-24.24023 12.97,1.93612 26.1653,-1.88848 35.7402,-9.17969 9.575,-7.29107 16.0854,-17.14381 21.0957,-27.99609 10.021,-21.70457 14.4488,-48.44206 15.9981,-75.50391 1.5499,-27.0619 -0.024,-54.19047 -4.2754,-76.13672 -2.1244,-10.9731 -4.8078,-20.61859 -8.9258,-29.07227 -4.1182,-8.45369 -10.1824,-18.47499 -24.0605,-20.54687 -20.1834,-3.01326 -65.0396,-5.89955 -94.5098,-8.35742 -22.4668,-1.80433 -26.8254,-6.0947 -36.6172,-19.23633 -5.5672,-8.04007 -11.5926,-14.10959 -18.7832,-20.73633 -14.3811,-13.25335 -33.4759,-27.7528 -57.0781,-44.15234 C 1316.5009,265.49979 1251.7227,225.97249 1180.5215,186.82227 1038.1185,108.52183 875.76723,31.373934 766.92578,20.34375 c -7.76881,-0.787282 -15.455,-1.345487 -23.02734,-1.433594 z M 368.33203,371.57617 a 129.28407,129.28407 0 0 1 41.37695,6.9336 c -1.92963,3.45056 -4.15165,7.26275 -5.96289,10.5625 -11.11834,20.25324 -19.91759,37.36506 -25.9707,51.0957 -3.02644,6.86537 -5.373,12.53851 -7.25977,19.61719 -0.94324,3.53933 -2.0681,7.11176 -1.91015,14.63672 0.0796,3.76245 0.32919,8.8245 3.54687,15.99804 3.21789,7.17349 11.44271,16.62071 21.58008,20.57617 23.85473,9.30792 35.5791,1.34049 47.10547,-3.07031 11.52635,-4.4107 23.02411,-10.0996 36.17578,-16.51367 6.03282,-2.94214 12.46383,-6.06439 19.1211,-9.23438 a 129.28407,129.28407 0 0 1 1.48632,18.67774 129.28407,129.28407 0 0 1 -129.28906,129.2793 129.28407,129.28407 0 0 1 -129.2793,-129.2793 129.28407,129.28407 0 0 1 129.2793,-129.2793 z M 1398.668,396.11328 c 15.4419,0.0634 30.8853,0.42829 46.3164,1.0957 41.1493,1.77978 92.552,7.26104 123,11.80664 30.4479,4.54563 37.1588,212.0197 -30.1524,201.97071 -67.311,-10.04897 -274.036,-11.57709 -405.2187,24.72851 C 955.37747,684.76587 704.06562,912.67816 668.08789,922.31836 616.74205,936.07646 545.10821,756.13007 591.23242,710.00586 729.15196,582.79406 896.94566,489.0332 1078.1328,438.88867 c 104.3504,-28.87958 212.4418,-43.21899 320.5352,-42.77539 z"
         id="circle4636"
         inkscape:connector-curvature="0"
         transform="matrix(0.04051917,0,0,0.04051917,-44.812861,-79.006012)" />
      <ellipse
         ry="3.9760127"
         rx="5.571126"
         cy="-39.354343"
         cx="1.2483197"
         id="path4573"
         style="opacity:1;vector-effect:none;fill:#c0272c;fill-opacity:1;stroke:none;stroke-width:0.93228304;stroke-linecap:round;stroke-linejoin:round;stroke-miterlimit:4;stroke-dasharray:none;stroke-dashoffset:0;stroke-opacity:1;paint-order:fill markers stroke" />
    </g>
  </g>
</svg>
